<?xml version="1.0" standalone="no"?>
<!DOCTYPE svg PUBLIC "-//W3C//DTD SVG 20010904//EN"
 "http://www.w3.org/TR/2001/REC-SVG-20010904/DTD/svg10.dtd">
<svg version="1.0" xmlns="http://www.w3.org/2000/svg"
 width="800.000000pt" height="800.000000pt" viewBox="0 0 800.000000 800.000000"
 preserveAspectRatio="xMidYMid meet">
<metadata>
Created by potrace 1.11, written by Peter Selinger 2001-2013
</metadata>
<g transform="translate(0.000000,800.000000) scale(0.100000,-0.100000)"
fill="#000000" stroke="none">
<path d="M6794 7852 c6 -10 -37 -69 -63 -86 -8 -5 -27 -22 -42 -37 -15 -15
-29 -25 -32 -23 -3 3 -4 -3 -3 -13 0 -10 -4 -17 -11 -16 -8 2 -10 -4 -6 -15 6
-15 5 -15 -10 -4 -12 10 -20 11 -34 2 -16 -10 -15 -10 5 -5 25 7 28 -2 8 -27
-16 -22 -26 -23 -26 -3 0 28 -19 16 -100 -63 -44 -42 -80 -76 -80 -75 0 6 -44
-34 -77 -69 -20 -20 -51 -47 -69 -60 -19 -13 -32 -29 -29 -36 3 -7 0 -10 -5
-7 -6 4 -34 -16 -63 -43 -57 -55 -93 -87 -129 -116 -62 -52 -203 -179 -289
-260 -53 -50 -129 -120 -169 -156 -116 -104 -160 -143 -194 -175 -18 -16 -65
-59 -105 -95 -121 -107 -150 -137 -143 -145 4 -5 2 -5 -4 -2 -14 8 -47 -26
-37 -38 5 -4 2 -5 -5 -1 -8 5 -37 -15 -80 -57 -37 -35 -86 -81 -109 -102 -24
-20 -40 -42 -36 -48 4 -6 1 -7 -7 -2 -7 4 -15 3 -19 -2 -3 -5 -51 -49 -106
-97 -55 -49 -114 -103 -131 -120 -17 -17 -64 -60 -105 -96 -40 -36 -84 -76
-98 -89 -15 -13 -54 -48 -88 -78 -35 -31 -60 -60 -56 -66 3 -5 2 -7 -4 -4 -13
8 -56 -37 -46 -48 5 -4 3 -5 -3 -2 -5 3 -30 -12 -55 -34 -25 -23 -35 -38 -24
-34 85 29 105 38 105 47 0 5 4 6 10 3 5 -3 86 26 180 65 94 38 173 70 175 70
3 0 24 9 48 19 76 35 250 102 289 110 22 5 38 5 40 -1 2 -5 136 -5 348 2 832
25 784 24 798 8 17 -21 5 -29 -108 -68 -52 -18 -111 -40 -130 -48 -19 -9 -37
-16 -40 -17 -54 -12 -210 -69 -210 -76 0 -6 -6 -9 -12 -6 -7 2 -76 -19 -153
-46 -77 -27 -155 -53 -174 -59 -19 -5 -44 -16 -56 -24 -12 -8 -25 -11 -28 -7
-4 3 -7 1 -7 -5 0 -7 -10 -12 -23 -12 -33 0 -118 -30 -112 -40 3 -4 -2 -11
-11 -14 -9 -4 -13 -2 -8 5 8 14 -32 2 -54 -15 -45 -36 -61 -56 -56 -71 5 -11
2 -14 -12 -8 -13 5 -15 3 -9 -7 6 -9 4 -12 -6 -8 -21 7 -50 -27 -35 -42 8 -9
7 -11 -5 -8 -10 2 -47 -27 -90 -69 -41 -39 -117 -112 -169 -163 -90 -87 -563
-551 -1183 -1162 l-282 -278 130 54 c72 29 184 77 250 106 66 29 149 65 185
80 36 15 85 36 110 48 25 11 83 36 130 55 47 20 114 48 150 62 36 15 70 32 77
37 8 6 20 5 34 -3 17 -9 73 -10 219 -5 974 34 1095 36 1116 14 12 -12 13 -17
2 -25 -7 -5 -105 -40 -218 -77 -113 -37 -214 -71 -225 -76 -11 -5 -46 -17 -77
-26 -32 -10 -58 -22 -58 -26 0 -5 -4 -7 -9 -3 -9 5 -112 -28 -654 -207 -175
-57 -178 -59 -236 -116 -32 -31 -98 -95 -147 -141 -189 -180 -595 -574 -762
-738 -96 -95 -176 -173 -179 -173 -3 0 -25 -19 -49 -42 -37 -37 -234 -225
-343 -327 -20 -19 -90 -86 -156 -150 -362 -348 -663 -635 -740 -705 -22 -20
-25 -25 -10 -20 18 6 17 4 -4 -19 -14 -15 -31 -27 -39 -27 -7 0 -45 -30 -84
-67 -257 -247 -357 -347 -352 -354 3 -5 -1 -6 -9 -4 -8 4 -59 -41 -129 -112
-63 -65 -146 -145 -183 -178 -38 -33 -108 -99 -158 -147 -86 -85 -107 -96
-107 -60 0 14 -2 14 -9 3 -10 -16 -3 -42 13 -53 24 -17 57 -6 108 35 29 24
179 139 333 255 154 117 330 251 390 298 61 47 142 109 180 139 39 29 115 88
170 132 55 43 127 98 160 123 33 25 115 89 182 142 l123 96 143 -73 c356 -184
694 -291 1127 -356 197 -30 629 -38 839 -15 576 63 1052 226 1531 524 140 88
322 223 426 317 6 5 46 41 89 80 107 97 331 352 418 475 348 495 544 1018 598
1594 17 182 7 561 -20 736 -37 243 -168 709 -194 693 -6 -3 -7 -2 -4 4 8 13
-23 94 -34 87 -5 -3 -6 1 -3 9 3 8 -2 21 -10 30 -8 8 -12 18 -8 22 4 3 -2 13
-12 21 -11 8 -16 14 -10 14 5 0 4 4 -2 8 -6 4 -30 45 -53 91 -61 120 -256 429
-291 461 -3 3 -27 32 -55 65 -27 33 -59 70 -70 81 -11 12 -29 33 -39 48 -10
14 -23 26 -28 26 -6 0 3 -15 18 -34 16 -19 38 -46 49 -60 11 -15 32 -40 47
-56 14 -16 23 -31 20 -34 -3 -3 0 -6 6 -6 18 0 42 -54 32 -70 -7 -11 -13 -6
-24 20 -19 46 -62 94 -75 85 -17 -10 -13 -25 19 -64 17 -20 34 -41 38 -46 4
-6 22 -31 40 -57 17 -25 32 -51 32 -56 0 -6 3 -12 8 -14 14 -6 100 -152 175
-298 165 -320 266 -643 313 -1000 24 -177 24 -560 0 -735 -34 -254 -108 -552
-171 -690 -7 -16 -26 -61 -41 -100 -40 -103 -162 -337 -228 -440 -68 -105
-178 -255 -250 -340 -28 -33 -60 -71 -71 -84 -55 -67 -342 -330 -403 -368 -15
-10 -29 -20 -32 -23 -14 -15 -125 -93 -202 -143 -129 -83 -280 -165 -408 -221
-36 -16 -83 -37 -105 -47 -140 -61 -306 -116 -484 -159 -179 -44 -197 -47
-281 -59 -41 -6 -118 -16 -170 -23 -151 -21 -694 -17 -845 6 -339 51 -719 161
-978 285 -62 30 -94 40 -112 35 -29 -7 -35 13 -7 23 34 13 128 76 152 103 14
15 32 30 40 32 14 5 89 -19 100 -32 3 -3 25 -14 50 -24 25 -10 68 -29 95 -42
68 -32 333 -114 367 -114 11 0 27 -4 37 -10 18 -9 199 -41 234 -41 9 0 17 -3
17 -7 0 -4 32 -7 71 -8 45 -1 74 -6 79 -14 5 -9 9 -9 14 -1 8 12 72 15 80 3 5
-8 191 -7 396 3 74 4 144 7 155 7 75 1 424 74 577 120 54 17 103 28 110 25 7
-2 20 1 28 7 8 7 33 18 55 25 62 19 262 108 275 121 3 3 25 14 50 25 25 11 68
34 95 51 28 17 83 48 123 69 39 21 72 42 72 46 0 3 14 12 30 19 17 7 30 16 30
21 0 5 7 9 15 9 8 0 15 5 15 10 0 6 7 10 15 10 9 0 18 7 21 15 4 8 11 15 18
15 7 0 28 15 48 34 20 19 45 37 57 41 12 3 21 13 21 22 0 10 6 13 17 9 10 -4
14 -4 11 -1 -4 4 21 32 55 63 112 101 316 312 348 360 18 26 37 52 43 57 41
35 198 309 307 534 89 184 88 182 119 266 12 33 25 67 29 75 4 8 14 40 20 70
7 30 23 100 36 155 13 55 27 125 30 155 3 30 13 105 20 165 8 61 15 134 15
164 0 30 3 51 7 48 4 -4 5 -31 4 -59 -1 -29 0 -50 4 -47 14 15 22 410 9 511
-12 103 -55 334 -75 408 -36 128 -90 294 -101 307 -5 7 -7 21 -3 32 4 13 -1
27 -16 42 -15 15 -18 24 -11 27 18 6 14 30 -4 28 -9 0 -20 9 -25 22 -7 18 -5
22 10 22 26 0 33 11 17 29 -22 25 -56 90 -56 108 0 9 -11 31 -25 49 -14 18
-25 38 -25 43 0 6 -5 21 -12 34 -25 49 -27 57 -22 72 3 8 1 15 -5 15 -8 0 -9
5 -1 19 13 26 13 38 -1 24 -8 -8 -16 -6 -28 6 -18 18 -25 55 -9 45 4 -3 8 -12
8 -20 0 -8 5 -14 10 -14 14 0 12 21 -4 39 -7 9 -35 48 -61 86 -77 112 -179
230 -325 375 -145 144 -240 225 -385 329 -49 35 -92 65 -94 67 -2 2 12 20 31
40 35 35 36 35 64 21 16 -9 60 -41 98 -71 69 -55 88 -68 68 -43 -6 6 -10 16
-9 21 2 9 -165 142 -187 149 -5 2 71 93 170 203 181 201 253 283 399 455 44
51 110 125 146 164 144 152 169 191 137 211 -6 4 -8 3 -4 -4z m-233 -273 c-11
-11 -26 -18 -33 -17 -7 2 -12 -5 -12 -14 1 -10 -4 -18 -11 -18 -6 0 -17 -10
-23 -22 l-11 -23 0 22 c-1 13 14 34 37 55 21 18 42 42 46 53 7 19 8 19 18 2 8
-15 5 -23 -11 -38z m-301 -329 c-6 -11 -13 -20 -16 -20 -2 0 0 9 6 20 6 11 13
20 16 20 2 0 0 -9 -6 -20z m-435 -620 c3 -5 1 -10 -4 -10 -6 0 -11 5 -11 10 0
6 2 10 4 10 3 0 8 -4 11 -10z m899 -629 c-6 -7 -54 41 -54 53 0 6 13 -2 29
-19 16 -16 27 -32 25 -34z m-114 14 c7 -9 8 -15 2 -15 -5 0 -12 7 -16 15 -3 8
-4 15 -2 15 2 0 9 -7 16 -15z m194 -81 c3 -8 2 -12 -4 -9 -6 3 -10 10 -10 16
0 14 7 11 14 -7z m-2184 -79 c-7 -8 -17 -15 -23 -15 -6 0 -2 7 9 15 25 19 30
19 14 0z m1461 -198 c-10 -9 -11 -8 -5 6 3 10 9 15 12 12 3 -3 0 -11 -7 -18z
m-744 -253 c-3 -3 -12 -4 -19 -1 -8 3 -5 6 6 6 11 1 17 -2 13 -5z m-382 -163
c-3 -6 -11 -11 -17 -11 -6 0 -6 6 2 15 14 17 26 13 15 -4z m2165 -1070 c0 -6
-4 -13 -10 -16 -5 -3 -10 1 -10 9 0 9 5 16 10 16 6 0 10 -4 10 -9z m-2730
-134 c0 -2 -12 -14 -27 -28 l-28 -24 24 28 c23 25 31 32 31 24z m1190 -157 c0
-5 -4 -10 -10 -10 -5 0 -10 5 -10 10 0 6 5 10 10 10 6 0 10 -4 10 -10z m-3090
-2405 c-7 -8 -17 -15 -22 -15 -6 0 -5 7 2 15 7 8 17 15 22 15 6 0 5 -7 -2 -15z
m-10 -59 c0 -3 -4 -8 -10 -11 -5 -3 -10 -1 -10 4 0 6 5 11 10 11 6 0 10 -2 10
-4z m-50 -51 c-13 -14 -26 -23 -28 -20 -7 7 29 45 41 45 6 0 0 -11 -13 -25z
m-635 -215 c-10 -11 -21 -18 -23 -15 -3 3 3 12 14 20 27 20 30 18 9 -5z
m-1105 -1044 c0 -3 -4 -8 -10 -11 -5 -3 -10 -1 -10 4 0 6 5 11 10 11 6 0 10
-2 10 -4z"/>
<path d="M3820 7278 c-3 -3 -54 -8 -115 -12 -320 -19 -699 -111 -1025 -248
-244 -103 -582 -300 -745 -436 -141 -117 -261 -227 -353 -326 -71 -75 -196
-226 -242 -292 -94 -135 -130 -189 -169 -258 -286 -498 -421 -1060 -391 -1626
9 -161 16 -219 51 -405 27 -142 27 -144 39 -125 8 13 10 12 10 -2 0 -9 -4 -19
-9 -23 -11 -6 6 -65 19 -65 16 0 20 18 5 24 -17 6 -21 36 -4 36 5 0 7 -5 4
-10 -3 -5 -2 -10 3 -10 17 0 29 24 30 58 1 30 26 71 35 55 2 -5 3 -25 2 -45
-1 -21 3 -38 8 -38 6 0 7 -16 4 -37 -4 -23 -3 -32 2 -24 6 9 15 -3 30 -44 12
-31 19 -61 16 -66 -4 -5 3 -22 14 -38 16 -22 18 -31 8 -41 -9 -10 -9 -11 0 -6
8 4 13 2 13 -7 0 -7 9 -31 19 -53 11 -22 23 -52 26 -67 4 -15 11 -30 16 -33 5
-3 9 -13 9 -22 0 -10 9 -23 20 -30 11 -7 17 -18 14 -27 -3 -8 8 -37 25 -65 17
-28 31 -59 31 -70 0 -11 4 -20 9 -20 10 0 76 -97 76 -111 0 -5 8 -18 18 -29 9
-11 17 -27 17 -35 0 -9 7 -18 15 -21 8 -4 15 -11 15 -16 0 -6 11 -24 25 -42
28 -34 29 -35 69 -89 16 -21 31 -35 33 -33 3 3 -7 20 -21 39 -14 19 -26 39
-26 45 0 7 -4 12 -9 12 -4 0 -25 28 -45 62 -21 35 -42 70 -47 78 -5 8 -12 22
-16 30 -4 8 -22 38 -40 67 -18 29 -33 55 -33 59 0 4 -22 53 -50 109 -67 140
-139 332 -168 455 -65 268 -77 340 -93 555 -13 177 -7 404 15 560 26 188 92
465 116 489 14 14 12 -11 -6 -59 -13 -36 -24 -77 -54 -210 -5 -22 -12 -60 -15
-85 -4 -25 -10 -63 -15 -85 -5 -23 -12 -81 -16 -130 -3 -50 -8 -93 -10 -97
-12 -20 -3 -395 11 -483 9 -53 18 -116 20 -140 6 -57 52 -274 64 -300 5 -11
12 -33 14 -50 3 -16 17 -61 32 -100 14 -38 35 -97 47 -130 22 -64 135 -307
147 -315 4 -3 16 -26 27 -52 10 -27 22 -48 27 -48 4 0 7 -6 7 -14 0 -7 7 -19
15 -26 9 -7 22 -27 30 -44 20 -40 169 -241 211 -284 19 -19 53 -56 76 -84 94
-110 333 -338 415 -396 36 -26 44 -47 14 -39 -13 3 -18 0 -15 -8 3 -7 -22 -36
-55 -64 l-61 -53 -62 48 c-84 64 -130 105 -279 254 -144 144 -217 228 -331
380 -194 260 -415 726 -478 1010 -7 30 -16 64 -21 75 -8 21 -28 118 -54 267
-8 48 -19 147 -24 219 -12 162 -17 172 -40 74 l-10 -40 1 55 c0 30 -3 63 -7
74 -5 11 -3 27 4 37 7 12 7 19 1 19 -5 0 -10 18 -10 40 0 22 -4 40 -10 40 -6
0 -10 -31 -11 -72 0 -40 -4 -93 -8 -118 l-7 -45 -8 40 c-19 93 -4 384 30 569
18 98 17 127 -1 58 -34 -123 -58 -372 -58 -592 0 -220 9 -324 44 -535 28 -168
124 -535 142 -547 8 -5 6 -8 -5 -8 -11 0 -15 -6 -11 -21 5 -16 8 -18 15 -7 7
9 8 7 3 -8 -3 -12 -1 -32 4 -45 6 -13 10 -17 11 -9 0 8 7 0 16 -19 8 -19 13
-39 11 -45 -2 -5 5 -18 15 -28 10 -10 18 -24 18 -30 0 -9 -4 -8 -10 2 -17 26
-11 1 12 -51 15 -35 24 -46 29 -37 9 13 13 -5 11 -41 -3 -60 267 -490 431
-686 130 -155 360 -379 455 -442 28 -19 52 -40 52 -46 0 -12 149 144 209 220
21 26 71 82 112 124 41 41 128 135 194 209 66 74 145 161 176 194 31 34 105
115 164 181 59 66 124 138 144 160 20 22 57 65 81 95 25 30 48 57 51 60 4 3 9
16 10 30 3 17 9 24 22 22 9 -2 17 3 17 10 0 15 12 23 88 63 29 15 52 33 52 41
0 8 10 14 24 14 13 0 50 13 82 29 33 15 64 30 69 32 6 2 34 17 63 33 l53 30
-28 12 c-27 13 -27 13 11 7 25 -4 41 -1 46 6 4 7 16 14 26 15 10 2 18 9 16 16
-1 7 5 9 17 5 26 -8 94 25 81 40 -5 6 -6 15 -2 21 10 15 51 24 58 13 3 -5 -4
-9 -15 -9 -12 0 -21 -4 -21 -9 0 -6 12 -6 31 1 18 6 28 16 25 23 -2 8 2 16 10
19 22 8 26 7 19 -4 -3 -5 -1 -10 6 -10 6 0 9 8 6 20 -3 13 1 21 15 26 25 7 37
-4 18 -16 -8 -6 -12 -10 -8 -10 8 0 88 40 88 44 0 2 -15 1 -32 0 -32 -3 -32
-3 5 7 20 6 37 15 37 19 0 4 11 11 25 14 14 4 25 13 25 21 0 15 15 19 57 15
12 -1 30 3 40 9 14 8 11 10 -17 6 -32 -5 -33 -5 -10 5 13 6 34 9 45 6 11 -3
27 -1 35 4 10 7 -6 10 -52 10 -49 0 -68 -4 -68 -13 0 -9 -19 -13 -70 -13 -65
-1 -87 7 -57 20 6 3 -59 4 -145 3 -87 -1 -158 -5 -158 -8 0 -9 -49 2 -56 12
-3 5 -25 9 -49 9 -33 0 -45 -4 -48 -17 -4 -17 -5 -17 -6 0 -1 13 -10 17 -43
17 -31 0 -39 -3 -28 -10 21 -13 10 -18 -29 -13 -23 4 -29 8 -20 14 9 5 -14 9
-58 9 -53 0 -91 -7 -145 -27 -75 -27 -104 -43 -77 -43 12 0 12 -2 -1 -10 -20
-13 -33 -13 -25 0 8 13 4 13 -39 -5 -21 -9 -34 -20 -30 -26 4 -8 -1 -9 -16 -4
-15 5 -20 3 -16 -3 7 -12 -30 -27 -59 -23 -17 1 -17 0 -5 -8 12 -8 7 -11 -21
-11 -19 0 -39 -4 -45 -8 -5 -5 -30 -17 -57 -26 -28 -11 -44 -22 -40 -29 4 -7
0 -8 -12 -3 -11 4 -38 -3 -69 -17 -28 -13 -82 -37 -119 -52 -37 -16 -70 -32
-73 -37 -3 -4 -13 -8 -23 -8 -10 0 -30 -9 -43 -20 -14 -10 -28 -17 -30 -14 -7
7 -78 -28 -78 -38 0 -4 -9 -8 -19 -8 -21 0 -162 -59 -146 -60 6 -1 -10 -7 -35
-15 -25 -7 -76 -26 -115 -43 -70 -29 -95 -31 -95 -7 0 15 68 81 220 215 58 51
130 116 160 144 53 49 167 150 220 196 60 51 90 78 175 154 50 45 92 83 95 86
31 31 126 104 133 102 5 -1 6 2 3 7 -5 8 32 40 44 37 9 -2 70 45 67 52 -3 11
213 209 433 397 33 28 105 91 161 140 56 50 153 134 216 188 62 54 113 101
113 105 0 15 46 60 70 67 14 4 32 13 40 20 8 6 40 22 70 34 63 27 77 37 38 27
-14 -3 -37 -2 -50 3 -21 9 -21 10 10 10 17 1 32 6 32 11 0 6 8 10 18 10 14 0
15 2 2 10 -10 6 -16 6 -18 0 -2 -6 -22 -10 -44 -10 -35 0 -40 -2 -35 -20 3
-11 1 -18 -4 -14 -5 3 -9 0 -9 -7 0 -8 11 -10 33 -6 l32 6 -32 -16 c-29 -15
-33 -15 -48 0 -9 9 -13 21 -10 27 3 5 -1 10 -10 10 -9 0 -14 -3 -12 -7 3 -5
-10 -8 -29 -9 -19 0 -34 3 -34 8 0 4 10 8 23 8 37 0 67 12 67 25 0 14 18 19
105 30 28 4 53 12 57 18 5 8 14 7 34 -1 14 -7 29 -10 32 -8 13 13 -57 27 -103
21 -27 -4 -59 -7 -70 -8 -11 0 -23 -5 -27 -11 -4 -6 -10 -7 -15 -3 -4 5 -1 12
7 17 13 8 12 13 -3 39 -21 36 -21 41 -2 41 9 0 15 -9 15 -25 0 -30 11 -32 33
-7 23 25 21 32 -8 32 -14 0 -25 5 -25 10 0 6 -18 10 -40 10 -22 0 -40 -4 -40
-10 0 -5 7 -10 15 -10 20 0 19 -6 -6 -47 l-21 -33 31 -11 c17 -6 31 -15 31
-20 0 -17 -47 -9 -65 11 -21 23 -105 29 -105 8 0 -9 -2 -10 -8 -2 -11 17 -45
25 -62 14 -13 -8 -12 -11 6 -16 11 -3 25 -19 32 -37 15 -38 4 -47 -53 -45
l-40 1 43 4 c33 3 42 8 42 23 0 10 -6 20 -12 23 -15 5 -60 -13 -70 -28 -5 -6
-8 -3 -8 6 0 9 -9 24 -20 34 -26 24 -25 35 2 35 17 0 19 3 10 12 -9 9 -15 9
-24 0 -7 -7 -22 -12 -34 -12 -12 0 -40 -18 -63 -40 -44 -43 -88 -53 -111 -25
-10 13 -9 15 9 15 25 0 28 15 5 24 -40 15 -84 0 -54 -19 14 -8 3 -24 -24 -35
-15 -6 0 -9 54 -11 57 -1 68 -3 45 -9 -16 -4 -51 -8 -77 -9 -46 -1 -69 -15
-52 -31 11 -10 125 -19 119 -9 -5 8 72 29 106 29 18 0 19 -2 9 -15 -7 -8 -9
-15 -5 -15 4 0 2 -6 -4 -14 -8 -9 -32 -12 -84 -10 -151 6 -264 4 -325 -6 -35
-5 -87 -9 -117 -7 -30 1 -55 -1 -55 -5 0 -5 -21 -7 -47 -7 l-48 2 40 7 40 7
-52 2 c-32 0 -53 -3 -53 -10 0 -6 -30 -10 -84 -8 -46 1 -89 -1 -95 -5 -14 -9
-118 12 -127 25 -12 19 30 53 266 219 67 47 214 152 328 234 114 82 259 184
322 228 132 91 165 114 390 277 91 66 311 225 489 353 179 128 386 278 462
333 75 55 171 125 214 155 42 30 141 102 219 160 79 58 183 133 232 167 124
87 140 101 131 109 -7 8 -77 -9 -114 -28 -18 -9 -33 -6 -80 14 -264 116 -594
206 -917 249 -140 18 -584 38 -596 27z m-1660 -763 c0 -2 -10 -10 -22 -16 -21
-11 -22 -11 -9 4 13 16 31 23 31 12z m-60 -45 c-6 -11 -22 -23 -35 -26 -14 -3
-25 -9 -25 -13 0 -4 -35 -36 -77 -71 -42 -36 -98 -87 -125 -115 -26 -27 -50
-47 -52 -44 -7 7 63 80 130 135 27 23 78 67 114 98 68 59 88 69 70 36z m-330
-284 c0 -3 -4 -8 -10 -11 -5 -3 -10 -1 -10 4 0 6 5 11 10 11 6 0 10 -2 10 -4z
m-37 -45 c-13 -11 -23 -22 -23 -25 0 -3 -25 -31 -55 -63 -30 -32 -55 -62 -55
-68 0 -5 -18 -29 -40 -52 -22 -23 -44 -54 -50 -69 -6 -15 -13 -24 -16 -21 -11
10 5 51 29 77 12 14 36 43 52 65 17 22 41 52 55 66 85 91 105 109 114 109 6
-1 1 -9 -11 -19z m-267 -327 c-19 -18 -21 -11 -4 19 7 14 13 17 15 10 3 -7 -3
-20 -11 -29z m-45 -70 c-12 -15 -21 -32 -21 -39 0 -12 -29 -30 -36 -23 -1 2
14 28 33 58 20 29 39 48 41 42 2 -7 -6 -24 -17 -38z m-68 -103 c-6 -3 -15 -22
-22 -41 -6 -20 -20 -43 -31 -53 -11 -9 -20 -23 -20 -31 0 -7 -7 -19 -15 -26
-24 -20 -17 1 15 50 16 25 30 48 30 52 0 17 44 80 48 68 3 -7 0 -15 -5 -19z
m-109 -201 c-22 -42 -34 -46 -16 -5 9 19 19 35 23 35 4 0 1 -13 -7 -30z m-53
-103 c-11 -24 -21 -49 -21 -55 0 -7 -5 -12 -10 -12 -7 0 -7 7 -2 18 4 9 17 36
28 59 10 23 21 40 23 38 2 -2 -6 -24 -18 -48z m-51 -127 c-26 -52 -33 -52 -12
0 9 22 20 40 25 40 4 0 -2 -18 -13 -40z m-36 -104 c-3 -14 -10 -26 -15 -26 -4
0 -3 14 3 31 12 36 22 33 12 -5z m2423 -218 c-3 -8 -6 -5 -6 6 -1 11 2 17 5
13 3 -3 4 -12 1 -19z m295 -73 c5 -21 3 -23 -14 -14 -22 12 -68 4 -81 -14 -6
-8 -10 -9 -13 -1 -3 6 -25 9 -59 6 -33 -3 -55 0 -55 6 0 5 33 13 73 17 58 5
136 18 143 24 1 1 4 -10 6 -24z m52 16 c4 -5 -3 -7 -14 -4 -23 6 -26 13 -6 13
8 0 17 -4 20 -9z m-74 -41 c0 -5 -9 -10 -21 -10 -11 0 -17 5 -14 10 3 6 13 10
21 10 8 0 14 -4 14 -10z m-1340 -90 c0 -5 -7 -7 -15 -4 -8 4 -15 8 -15 10 0 2
7 4 15 4 8 0 15 -4 15 -10z m-1810 -630 c0 -5 -2 -10 -4 -10 -3 0 -8 5 -11 10
-3 6 -1 10 4 10 6 0 11 -4 11 -10z m60 -160 c0 -5 -2 -10 -4 -10 -3 0 -8 5
-11 10 -3 6 -1 10 4 10 6 0 11 -4 11 -10z m2150 -24 c0 -2 -12 -12 -27 -21
l-28 -18 19 21 c17 20 36 29 36 18z m-2120 -16 c0 -5 -2 -10 -4 -10 -3 0 -8 5
-11 10 -3 6 -1 10 4 10 6 0 11 -4 11 -10z m0 -24 c0 -3 -4 -8 -10 -11 -5 -3
-10 -1 -10 4 0 6 5 11 10 11 6 0 10 -2 10 -4z m2471 -425 c-8 -5 -20 -7 -28
-4 -21 8 -15 13 15 13 20 0 23 -3 13 -9z m131 -3 c-9 -9 -15 -9 -24 0 -9 9 -7
12 12 12 19 0 21 -3 12 -12z m428 -8 c0 -5 -4 -10 -9 -10 -6 0 -13 5 -16 10
-3 6 1 10 9 10 9 0 16 -4 16 -10z m-683 -6 c-3 -3 -12 -4 -19 -1 -8 3 -5 6 6
6 11 1 17 -2 13 -5z m403 -14 c0 -5 -7 -10 -15 -10 -8 0 -15 5 -15 10 0 6 7
10 15 10 8 0 15 -4 15 -10z m-23 -116 c-15 -8 -33 -11 -40 -7 -8 5 -1 10 18
14 48 10 52 9 22 -7z m60 10 c-3 -3 -12 -4 -19 -1 -8 3 -5 6 6 6 11 1 17 -2
13 -5z m-820 -40 c-3 -3 -12 -4 -19 -1 -8 3 -5 6 6 6 11 1 17 -2 13 -5z m328
-4 c3 -5 -3 -10 -15 -10 -12 0 -18 5 -15 10 3 6 10 10 15 10 5 0 12 -4 15 -10z
m335 -142 c0 -4 -9 -8 -21 -8 -11 0 -18 4 -15 8 3 5 12 9 21 9 8 0 15 -4 15
-9z m-130 -92 c0 -2 -7 -7 -16 -10 -8 -3 -12 -2 -9 4 6 10 25 14 25 6z m-133
-67 c-7 -5 -27 -4 -43 1 -27 8 -25 8 14 7 27 0 38 -3 29 -8z m-827 -18 c0 -11
-30 -19 -47 -14 -24 8 -13 23 17 23 17 0 30 -4 30 -9z"/>
<path d="M6160 6656 c0 -2 8 -10 18 -17 15 -13 16 -12 3 4 -13 16 -21 21 -21
13z"/>
<path d="M6310 6495 c13 -14 26 -25 28 -25 3 0 -5 11 -18 25 -13 14 -26 25
-28 25 -3 0 5 -11 18 -25z"/>
<path d="M6395 6413 c7 -31 22 -50 31 -41 6 7 -23 68 -32 68 -4 0 -3 -12 1
-27z"/>
<path d="M6566 6245 c4 -8 11 -15 16 -15 6 0 5 6 -2 15 -7 8 -14 15 -16 15 -2
0 -1 -7 2 -15z"/>
<path d="M6545 6180 c3 -5 10 -10 16 -10 5 0 9 5 9 10 0 6 -7 10 -16 10 -8 0
-12 -4 -9 -10z"/>
<path d="M6600 6119 c0 -5 5 -7 10 -4 6 3 10 8 10 11 0 2 -4 4 -10 4 -5 0 -10
-5 -10 -11z"/>
<path d="M6626 6102 c-4 -7 -2 -12 4 -12 6 0 9 -4 5 -9 -3 -5 0 -13 6 -17 7
-4 9 -3 5 4 -3 6 2 16 11 22 16 10 16 11 1 6 -9 -3 -18 0 -21 7 -2 8 -5 8 -11
-1z"/>
<path d="M6796 5757 c3 -10 9 -15 12 -12 3 3 0 11 -7 18 -10 9 -11 8 -5 -6z"/>
<path d="M6812 5680 c0 -14 2 -19 5 -12 2 6 2 18 0 25 -3 6 -5 1 -5 -13z"/>
<path d="M935 5460 c-3 -5 -1 -10 4 -10 6 0 11 5 11 10 0 6 -2 10 -4 10 -3 0
-8 -4 -11 -10z"/>
<path d="M4718 5268 c5 -5 16 -8 23 -6 8 3 3 7 -10 11 -17 4 -21 3 -13 -5z"/>
<path d="M4425 5180 c3 -5 10 -10 16 -10 5 0 9 5 9 10 0 6 -7 10 -16 10 -8 0
-12 -4 -9 -10z"/>
<path d="M4464 5159 c-3 -5 -15 -9 -27 -10 -12 0 -17 -3 -11 -5 6 -2 28 -1 50
4 33 7 35 9 17 14 -13 3 -26 2 -29 -3z"/>
<path d="M4320 5150 c0 -5 7 -7 15 -4 8 4 15 8 15 10 0 2 -7 4 -15 4 -8 0 -15
-4 -15 -10z"/>
<path d="M4370 5156 c0 -2 7 -6 15 -10 8 -3 15 -1 15 4 0 6 -7 10 -15 10 -8 0
-15 -2 -15 -4z"/>
<path d="M4080 5105 c0 -8 6 -15 14 -15 7 0 19 7 26 15 11 13 8 15 -14 15 -16
0 -26 -5 -26 -15z"/>
<path d="M4300 5116 c0 -2 7 -7 16 -10 8 -3 12 -2 9 4 -6 10 -25 14 -25 6z"/>
<path d="M3395 5070 c-3 -6 1 -7 9 -4 18 7 21 14 7 14 -6 0 -13 -4 -16 -10z"/>
<path d="M4184 5058 c-6 -20 -20 -24 -26 -6 -3 9 -16 8 -53 -1 -42 -11 -50
-10 -57 3 -11 20 -48 21 -48 2 0 -16 27 -29 42 -20 5 3 12 -3 15 -15 5 -21 23
-30 23 -11 0 6 18 10 40 10 22 0 48 4 58 9 9 5 44 15 77 22 89 18 91 24 9 25
-63 0 -75 -2 -80 -18z"/>
<path d="M4420 5070 c-13 -8 -13 -10 2 -10 9 0 20 5 23 10 8 13 -5 13 -25 0z"/>
<path d="M4278 5023 c7 -3 16 -2 19 1 4 3 -2 6 -13 5 -11 0 -14 -3 -6 -6z"/>
<path d="M4255 4990 c-3 -5 -2 -10 4 -10 5 0 13 5 16 10 3 6 2 10 -4 10 -5 0
-13 -4 -16 -10z"/>
<path d="M712 4948 c-6 -23 -9 -44 -7 -46 2 -2 9 15 15 38 6 23 9 44 7 46 -2
3 -9 -14 -15 -38z"/>
<path d="M4142 4933 c-18 -8 -31 -17 -29 -19 2 -2 21 5 43 16 21 10 35 19 29
19 -5 0 -25 -7 -43 -16z"/>
<path d="M3230 4920 c0 -5 5 -10 10 -10 6 0 10 5 10 10 0 6 -4 10 -10 10 -5 0
-10 -4 -10 -10z"/>
<path d="M4066 4917 c-16 -12 -16 -15 -4 -19 8 -4 21 -2 29 3 11 7 11 9 1 9
-7 0 -10 5 -7 10 8 14 2 13 -19 -3z"/>
<path d="M3105 4890 c-3 -5 -1 -10 4 -10 6 0 11 -4 11 -10 0 -13 -33 -13 -46
0 -7 7 -27 7 -62 -1 -39 -10 -52 -17 -52 -31 0 -18 30 -25 85 -19 11 1 30 -4
43 -11 19 -10 25 -10 32 2 10 16 72 18 78 2 2 -7 8 -12 13 -12 4 0 6 6 3 14
-3 8 -1 17 5 21 16 9 13 25 -4 25 -8 0 -15 5 -15 11 0 7 -10 9 -25 5 -18 -5
-25 -2 -25 9 0 17 -35 21 -45 5z m-105 -50 c0 -5 -4 -10 -10 -10 -5 0 -10 5
-10 10 0 6 5 10 10 10 6 0 10 -4 10 -10z"/>
<path d="M686 4854 c-4 -20 -5 -38 -2 -41 2 -3 8 11 12 31 3 21 4 39 1 42 -2
3 -8 -11 -11 -32z"/>
<path d="M2789 4844 c-9 -11 -7 -14 14 -14 31 0 45 -17 20 -23 -10 -2 -3 -3
16 -1 19 2 37 7 40 11 3 4 20 8 36 8 20 0 30 5 30 15 0 21 -139 24 -156 4z"/>
<path d="M2697 4843 c-9 -2 -15 -9 -12 -14 9 -14 22 -11 29 6 3 8 4 14 3 14
-1 -1 -10 -3 -20 -6z"/>
<path d="M2733 4822 c-9 -6 -7 -11 6 -19 11 -7 23 -8 32 -2 10 6 8 9 -11 10
-23 0 -23 1 -5 9 13 6 15 9 5 9 -8 0 -20 -3 -27 -7z"/>
<path d="M2620 4810 c-9 -6 -10 -10 -3 -10 6 0 15 5 18 10 8 12 4 12 -15 0z"/>
<path d="M2748 4773 c7 -3 16 -2 19 1 4 3 -2 6 -13 5 -11 0 -14 -3 -6 -6z"/>
<path d="M677 4433 c-4 -3 -7 -13 -7 -22 1 -13 3 -13 11 2 11 19 8 33 -4 20z"/>
<path d="M723 4345 c0 -22 2 -30 4 -17 2 12 2 30 0 40 -3 9 -5 -1 -4 -23z"/>
<path d="M715 4270 c-3 -11 -2 -27 3 -37 8 -13 10 -9 9 20 -1 42 -3 45 -12 17z"/>
<path d="M710 4203 c0 -4 5 -15 10 -23 8 -13 10 -13 10 2 0 9 -4 20 -10 23 -5
3 -10 3 -10 -2z"/>
<path d="M904 3380 c11 -38 24 -70 29 -70 4 0 7 19 6 43 -1 36 -2 38 -9 17 -4
-14 -8 -18 -9 -10 -2 30 -22 90 -30 90 -5 0 1 -31 13 -70z"/>
<path d="M919 3423 c5 -26 6 -26 9 -5 2 13 8 19 14 16 7 -4 8 -2 4 4 -15 24
-33 13 -27 -15z"/>
<path d="M3863 3423 c15 -2 37 -2 50 0 12 2 0 4 -28 4 -27 0 -38 -2 -22 -4z"/>
<path d="M3933 3365 c0 -8 4 -15 7 -15 4 0 13 7 20 15 10 12 9 15 -7 15 -11 0
-20 -7 -20 -15z"/>
<path d="M941 3284 c0 -11 3 -14 6 -6 3 7 2 16 -1 19 -3 4 -6 -2 -5 -13z"/>
<path d="M980 3168 c0 -9 5 -20 10 -23 13 -8 13 5 0 25 -8 13 -10 13 -10 -2z"/>
<path d="M1769 1453 l-24 -28 28 24 c25 23 32 31 24 31 -2 0 -14 -12 -28 -27z"/>
<path d="M1704 1378 l-19 -23 23 19 c12 11 22 21 22 23 0 8 -8 2 -26 -19z"/>
</g>
</svg>
